<svg width="41" height="40" viewBox="0 0 41 40" fill="none" xmlns="http://www.w3.org/2000/svg">
<path fill-rule="evenodd" clip-rule="evenodd" d="M40.7676 37.0275C37.7684 31.8424 33.1466 28.1245 27.7528 26.362C33.2368 23.0973 35.8637 16.5711 34.1707 10.4176C32.4777 4.26409 26.8821 5.76932e-05 20.5 5.76932e-05C14.1178 5.76932e-05 8.52225 4.26409 6.82928 10.4176C5.1363 16.5711 7.76324 23.0973 13.2472 26.362C7.85341 28.1225 3.23156 31.8405 0.232372 37.0275C-0.0670529 37.5157 -0.0779257 38.128 0.203976 38.6266C0.485877 39.1251 1.01614 39.4314 1.58885 39.4265C2.16156 39.4216 2.68649 39.1062 2.9598 38.6029C6.66988 32.191 13.2275 28.3628 20.5 28.3628C27.7725 28.3628 34.3301 32.191 38.0402 38.6029C38.3135 39.1062 38.8384 39.4216 39.4111 39.4265C39.9839 39.4314 40.5141 39.1251 40.796 38.6266C41.0779 38.128 41.0671 37.5157 40.7676 37.0275ZM9.47214 14.1841C9.47214 8.09357 14.4095 3.15623 20.5 3.15623C26.5905 3.15623 31.5279 8.09357 31.5279 14.1841C31.5279 20.2746 26.5905 25.2119 20.5 25.2119C14.4122 25.2054 9.47865 20.2719 9.47214 14.1841Z" fill="#639154"/>
</svg>
