<svg width="50" height="50" viewBox="0 0 50 50" fill="none" xmlns="http://www.w3.org/2000/svg">
<path fill-rule="evenodd" clip-rule="evenodd" d="M49.7435 49.0001C49.3999 49.619 48.7648 50.0002 48.0776 50H1.92121C1.23448 49.9993 0.600227 49.6178 0.257165 48.9993C-0.0858977 48.3807 -0.0857097 47.6188 0.257658 47.0004C3.91892 40.4188 9.56105 35.6994 16.1455 33.4623C9.45098 29.3183 6.24414 21.0343 8.31084 13.2234C10.3775 5.4125 17.2084 0 24.9994 0C32.7904 0 39.6213 5.4125 41.688 13.2234C43.7547 21.0343 40.5478 29.3183 33.8532 33.4623C40.4377 35.6994 46.0799 40.4188 49.7411 47.0004C50.0854 47.6187 50.0863 48.381 49.7435 49.0001Z" fill="#0F1417"/>
</svg>
