<svg width="36" height="40" viewBox="0 0 36 40" fill="none" xmlns="http://www.w3.org/2000/svg">
<path fill-rule="evenodd" clip-rule="evenodd" d="M7.82609 10.982V1.59065C7.82609 0.726206 8.52686 0.0254348 9.3913 0.0254348C10.2557 0.0254348 10.9565 0.726206 10.9565 1.59065V10.982C10.9565 11.8464 10.2557 12.5472 9.3913 12.5472C8.52686 12.5472 7.82609 11.8464 7.82609 10.982ZM36 1.59065V37.5907C36 38.4551 35.2992 39.1559 34.4348 39.1559C33.5703 39.1559 32.8696 38.4551 32.8696 37.5907V28.1993H23.4783C22.6138 28.1993 21.913 27.4986 21.913 26.6341C21.9857 22.8848 22.4593 19.154 23.3257 15.5054C25.2391 7.58348 28.8665 2.27348 33.8185 0.152608C34.3019 -0.0544869 34.8571 -0.00491805 35.2962 0.284554C35.7354 0.574026 35.9998 1.0647 36 1.59065ZM32.8696 4.31022C26.5754 9.11739 25.3428 20.8272 25.1022 25.0689H32.8696V4.31022ZM17.1959 1.33435C17.1124 0.774964 16.7337 0.304101 16.2052 0.102672C15.6767 -0.0987556 15.0807 0.000585141 14.6461 0.362526C14.2115 0.724468 14.006 1.29271 14.1085 1.84891L15.6522 11.1052C15.6522 14.563 12.8491 17.3661 9.3913 17.3661C5.93352 17.3661 3.13043 14.563 3.13043 11.1052L4.67217 1.84891C4.77467 1.29271 4.56914 0.724468 4.13455 0.362526C3.69995 0.000585141 3.10391 -0.0987556 2.57542 0.102672C2.04694 0.304101 1.66822 0.774964 1.58478 1.33435L0.0195652 10.7257C0.00617336 10.8104 -0.000369714 10.8961 0 10.982C0.00645662 15.5619 3.31111 19.4713 7.82609 20.2402V37.5907C7.82609 38.4551 8.52686 39.1559 9.3913 39.1559C10.2557 39.1559 10.9565 38.4551 10.9565 37.5907V20.2402C15.4715 19.4713 18.7762 15.5619 18.7826 10.982C18.7823 10.8961 18.7751 10.8104 18.7611 10.7257L17.1959 1.33435Z" fill="#121A0F"/>
</svg>
