<svg width="354" height="114" viewBox="0 0 354 114" fill="none" xmlns="http://www.w3.org/2000/svg">
<path d="M0 82.4991C13.6148 82.4991 13.6148 16.5015 27.2298 16.5015C40.8446 16.5015 40.8446 31.5009 54.4596 31.5009C68.0744 31.5009 68.0744 70.4995 81.6892 70.4995C95.3042 70.4995 95.3042 25.5012 108.919 25.5012C122.534 25.5012 122.534 76.4993 136.149 76.4993C149.764 76.4993 149.764 46.5004 163.379 46.5004C176.994 46.5004 176.994 34.5008 190.609 34.5008C204.224 34.5008 204.224 91.4987 217.839 91.4987C231.453 91.4987 231.453 112.498 245.068 112.498C258.683 112.498 258.683 1.50204 272.298 1.50204C285.913 1.50204 285.913 61.4998 299.528 61.4998C313.142 61.4998 313.142 97.4985 326.757 97.4985C340.372 97.4985 340.372 19.5014 353.987 19.5014" stroke="#639154" stroke-width="3"/>
</svg>
