<svg width="354" height="111" viewBox="0 0 354 111" fill="none" xmlns="http://www.w3.org/2000/svg">
<path fill-rule="evenodd" clip-rule="evenodd" d="M0 81C13.6153 81 13.6153 15 27.2308 15C40.8461 15 40.8461 30 54.4615 30C68.0769 30 68.0769 69 81.6922 69C95.3077 69 95.3077 24 108.923 24C122.539 24 122.539 75 136.153 75C149.769 75 149.769 45 163.384 45C177 45 177 33 190.615 33C204.231 33 204.231 90 217.846 90C231.461 90 231.461 111 245.077 111C258.692 111 258.692 0 272.308 0C285.923 0 285.923 60 299.539 60C313.153 60 313.153 96 326.769 96C340.384 96 340.384 18 354 18V111H245.077H0V81Z" fill="url(#paint0_linear_7_1235)"/>
<defs>
<linearGradient id="paint0_linear_7_1235" x1="-181.5" y1="-0.750008" x2="-181.5" y2="147.457" gradientUnits="userSpaceOnUse">
<stop stop-color="#E8EDF5"/>
<stop offset="0.5" stop-color="#E8EDF5" stop-opacity="0"/>
</linearGradient>
</defs>
</svg>
