<svg width="38" height="43" viewBox="0 0 38 43" fill="none" xmlns="http://www.w3.org/2000/svg">
<path fill-rule="evenodd" clip-rule="evenodd" d="M34.8333 14.25H28.5V9.5C28.5 4.25329 24.2467 0 19 0C13.7533 0 9.5 4.25329 9.5 9.5V14.25H3.16667C1.41776 14.25 0 15.6678 0 17.4167V39.5833C0 41.3322 1.41776 42.75 3.16667 42.75H34.8333C36.5822 42.75 38 41.3322 38 39.5833V17.4167C38 15.6678 36.5822 14.25 34.8333 14.25ZM12.6667 9.5C12.6667 6.0022 15.5022 3.16667 19 3.16667C22.4978 3.16667 25.3333 6.0022 25.3333 9.5V14.25H12.6667V9.5ZM34.8333 39.5833H3.16667V17.4167H34.8333V39.5833ZM21.375 28.5C21.375 29.8117 20.3117 30.875 19 30.875C17.6883 30.875 16.625 29.8117 16.625 28.5C16.625 27.1883 17.6883 26.125 19 26.125C20.3117 26.125 21.375 27.1883 21.375 28.5Z" fill="#0D141C"/>
</svg>
