<svg width="38" height="32" viewBox="0 0 38 32" fill="none" xmlns="http://www.w3.org/2000/svg">
<path fill-rule="evenodd" clip-rule="evenodd" d="M37.5356 16.954L23.2861 31.2035C22.6675 31.8222 21.6644 31.8222 21.0458 31.2035C20.4271 30.5849 20.4271 29.5818 21.0458 28.9632L32.5938 17.4171H1.58328C0.708859 17.4171 0 16.7082 0 15.8338C0 14.9594 0.708859 14.2505 1.58328 14.2505H32.5938L21.0458 2.70444C20.4271 2.08579 20.4271 1.08275 21.0458 0.464099C21.6644 -0.154555 22.6675 -0.154555 23.2861 0.464099L37.5356 14.7136C37.833 15.0106 38 15.4136 38 15.8338C38 16.254 37.833 16.657 37.5356 16.954Z" fill="#0D141C"/>
</svg>
