<svg width="40" height="40" viewBox="0 0 40 40" fill="none" xmlns="http://www.w3.org/2000/svg">
<path fill-rule="evenodd" clip-rule="evenodd" d="M38.0742 26.8919L28.6522 22.6699L28.6262 22.6579C27.6325 22.2329 26.4913 22.3382 25.5922 22.9379C25.54 22.9723 25.49 23.0097 25.4422 23.0499L20.5741 27.1999C17.4901 25.7019 14.3061 22.5419 12.8081 19.4979L16.9641 14.5558C17.0041 14.5058 17.0421 14.4558 17.0781 14.4018C17.6648 13.5053 17.7639 12.3747 17.3421 11.3898V11.3658L13.1081 1.92776C12.5443 0.626749 11.1915 -0.148107 9.78406 0.0237501C4.17781 0.76147 -0.0101368 5.54524 0 11.1998C0 27.0799 12.9201 40 28.8002 40C34.4548 40.0101 39.2385 35.8222 39.9762 30.2159C40.1484 28.809 39.3745 27.4564 38.0742 26.8919ZM28.8002 36.8C14.668 36.7845 3.21545 25.332 3.20002 11.1998C3.18445 7.15965 6.16953 3.73542 10.1741 3.19977C10.1733 3.20775 10.1733 3.21579 10.1741 3.22377L14.3741 12.6238L10.2401 17.5719C10.1981 17.6201 10.16 17.6716 10.1261 17.7259C9.5139 18.6652 9.43803 19.8564 9.92606 20.8659C11.7381 24.5719 15.4721 28.2779 19.2181 30.0879C20.2351 30.5715 21.4314 30.4849 22.3681 29.8599C22.4195 29.8253 22.4689 29.788 22.5161 29.7479L27.3782 25.5999L36.7782 29.8099C36.7782 29.8099 36.7942 29.8099 36.8002 29.8099C36.2711 33.8204 32.8454 36.8136 28.8002 36.8Z" fill="#0D141C"/>
</svg>
