<svg width="38" height="41" viewBox="0 0 38 41" fill="none" xmlns="http://www.w3.org/2000/svg">
<path fill-rule="evenodd" clip-rule="evenodd" d="M36.2692 6.30769H28.3846V4.73077C28.3846 2.11804 26.2666 0 23.6538 0H14.1923C11.5796 0 9.46154 2.11804 9.46154 4.73077V6.30769H1.57692C0.706012 6.30769 0 7.0137 0 7.88462C0 8.75553 0.706012 9.46154 1.57692 9.46154H3.15385V37.8462C3.15385 39.588 4.56587 41 6.30769 41H31.5385C33.2803 41 34.6923 39.588 34.6923 37.8462V9.46154H36.2692C37.1401 9.46154 37.8462 8.75553 37.8462 7.88462C37.8462 7.0137 37.1401 6.30769 36.2692 6.30769ZM12.6154 4.73077C12.6154 3.85986 13.3214 3.15385 14.1923 3.15385H23.6538C24.5248 3.15385 25.2308 3.85986 25.2308 4.73077V6.30769H12.6154V4.73077ZM31.5385 37.8462H6.30769V9.46154H31.5385V37.8462ZM15.7692 17.3462V29.9615C15.7692 30.8324 15.0632 31.5385 14.1923 31.5385C13.3214 31.5385 12.6154 30.8324 12.6154 29.9615V17.3462C12.6154 16.4752 13.3214 15.7692 14.1923 15.7692C15.0632 15.7692 15.7692 16.4752 15.7692 17.3462ZM25.2308 17.3462V29.9615C25.2308 30.8324 24.5248 31.5385 23.6538 31.5385C22.7829 31.5385 22.0769 30.8324 22.0769 29.9615V17.3462C22.0769 16.4752 22.7829 15.7692 23.6538 15.7692C24.5248 15.7692 25.2308 16.4752 25.2308 17.3462Z" fill="#0D141C"/>
</svg>
