<svg width="38" height="40" viewBox="0 0 38 40" fill="none" xmlns="http://www.w3.org/2000/svg">
<path fill-rule="evenodd" clip-rule="evenodd" d="M38 18.1159V36.4133C38 38.1622 36.5822 39.58 34.8333 39.58H26.9167C25.1678 39.58 23.75 38.1622 23.75 36.4133V28.4966C23.75 27.6222 23.0411 26.9133 22.1667 26.9133H15.8333C14.9589 26.9133 14.25 27.6222 14.25 28.4966V36.4133C14.25 38.1622 12.8322 39.58 11.0833 39.58H3.16667C1.41777 39.58 3.66516e-08 38.1622 3.66516e-08 36.4133V18.1159C-0.000134657 17.2298 0.370985 16.3842 1.02323 15.7844L16.8566 0.845696L16.8783 0.823925C18.0863 -0.274642 19.9315 -0.274642 21.1395 0.823925C21.1462 0.83167 21.1535 0.838944 21.1613 0.845696L36.9946 15.7844C37.6402 16.3873 38.0047 17.2325 38 18.1159Z" fill="#0D141C"/>
</svg>
