<svg width="41" height="41" viewBox="0 0 41 41" fill="none" xmlns="http://www.w3.org/2000/svg">
<path fill-rule="evenodd" clip-rule="evenodd" d="M40.5383 38.3093L30.6794 28.4525C36.6155 21.3258 35.8963 10.7906 29.0466 4.53679C22.1969 -1.71697 11.6399 -1.47704 5.08144 5.08144C-1.47704 11.6399 -1.71697 22.1969 4.53679 29.0466C10.7906 35.8963 21.3258 36.6155 28.4525 30.6794L38.3093 40.5383C38.9248 41.1538 39.9228 41.1538 40.5383 40.5383C41.1538 39.9228 41.1538 38.9248 40.5383 38.3093ZM3.19398 17.3709C3.19398 9.54119 9.54119 3.19398 17.3709 3.19398C25.2005 3.19398 31.5478 9.54119 31.5478 17.3709C31.5478 25.2005 25.2005 31.5478 17.3709 31.5478C9.54479 31.5391 3.20266 25.1969 3.19398 17.3709Z" fill="#639154"/>
</svg>
