<svg width="43" height="43" viewBox="0 0 43 43" fill="none" xmlns="http://www.w3.org/2000/svg">
<path fill-rule="evenodd" clip-rule="evenodd" d="M42.6248 8.53332C42.3222 8.1712 41.8745 7.96196 41.4026 7.96204H9.2917L8.31834 2.61553C8.04322 1.10115 6.72445 0.000222329 5.18528 0H1.59241C0.712945 0 0 0.712945 0 1.59241C0 2.47187 0.712945 3.18482 1.59241 3.18482H5.17533L10.2631 31.1097C10.4129 31.9379 10.7789 32.7117 11.324 33.353C9.23587 35.3034 8.96093 38.517 10.6874 40.7937C12.4139 43.0704 15.5825 43.6728 18.0239 42.1883C20.4654 40.7038 21.3887 37.6135 20.1619 35.033H29.2028C28.8465 35.7788 28.6622 36.5951 28.6633 37.4216C28.6633 40.4997 31.1587 42.995 34.2368 42.995C37.3149 42.995 39.8102 40.4997 39.8102 37.4216C39.8102 34.3435 37.3149 31.8482 34.2368 31.8482H14.9627C14.1931 31.8481 13.5337 31.2976 13.3961 30.5404L12.7651 27.0709H35.8551C38.1638 27.0706 40.142 25.4192 40.5547 23.1476L42.9751 9.83909C43.0581 9.3734 42.9297 8.89494 42.6248 8.53332ZM17.5165 37.4216C17.5165 38.7408 16.4471 39.8102 15.1279 39.8102C13.8087 39.8102 12.7393 38.7408 12.7393 37.4216C12.7393 36.1024 13.8087 35.033 15.1279 35.033C16.4471 35.033 17.5165 36.1024 17.5165 37.4216ZM36.6254 37.4216C36.6254 38.7408 35.556 39.8102 34.2368 39.8102C32.9176 39.8102 31.8482 38.7408 31.8482 37.4216C31.8482 36.1024 32.9176 35.033 34.2368 35.033C35.556 35.033 36.6254 36.1024 36.6254 37.4216ZM37.4216 22.5784C37.2836 23.3378 36.6209 23.8889 35.8491 23.8861H12.1859L9.87094 11.1469H39.4937L37.4216 22.5784Z" fill="#121A0F"/>
</svg>
