<svg width="38" height="32" viewBox="0 0 38 32" fill="none" xmlns="http://www.w3.org/2000/svg">
<path fill-rule="evenodd" clip-rule="evenodd" d="M38 15.8338C38 16.7082 37.2911 17.4171 36.4167 17.4171H5.40616L16.9542 28.9632C17.5729 29.5818 17.5729 30.5849 16.9542 31.2035C16.3356 31.8222 15.3325 31.8222 14.7139 31.2035L0.464346 16.954C0.167042 16.657 -9.18041e-06 16.254 -9.18041e-06 15.8338C-9.18041e-06 15.4136 0.167042 15.0106 0.464346 14.7136L14.7139 0.464099C15.3325 -0.154555 16.3356 -0.154555 16.9542 0.464099C17.5729 1.08275 17.5729 2.08579 16.9542 2.70444L5.40616 14.2505H36.4167C37.2911 14.2505 38 14.9594 38 15.8338Z" fill="#0D141C"/>
</svg>
