<svg width="41" height="38" viewBox="0 0 41 38" fill="none" xmlns="http://www.w3.org/2000/svg">
<path fill-rule="evenodd" clip-rule="evenodd" d="M41 12.6154C41.0008 12.4688 40.9809 12.3228 40.9409 12.1817L38.1123 2.28654C37.7218 0.938093 36.4904 0.00750107 35.0865 0H5.91346C4.50964 0.00750107 3.27821 0.938093 2.88774 2.28654L0.0611058 12.1817C0.0203853 12.3227 -0.000187202 12.4687 0 12.6154V15.7692C0 18.251 1.16845 20.5879 3.15385 22.0769V34.6923C3.15385 36.4341 4.56587 37.8462 6.30769 37.8462H34.6923C36.4341 37.8462 37.8462 36.4341 37.8462 34.6923V22.0769C39.8315 20.5879 41 18.251 41 15.7692V12.6154ZM5.91346 3.15385H35.0865L37.3376 11.0385H3.66832L5.91346 3.15385ZM15.7692 14.1923H25.2308V15.7692C25.2308 18.382 23.1127 20.5 20.5 20.5C17.8873 20.5 15.7692 18.382 15.7692 15.7692V14.1923ZM12.6154 14.1923V15.7692C12.6154 18.382 10.4973 20.5 7.88462 20.5C5.27188 20.5 3.15385 18.382 3.15385 15.7692V14.1923H12.6154ZM34.6923 34.6923H6.30769V23.4962C6.82682 23.6008 7.35505 23.6536 7.88462 23.6538C10.3664 23.6538 12.7033 22.4854 14.1923 20.5C15.6814 22.4854 18.0183 23.6538 20.5 23.6538C22.9817 23.6538 25.3186 22.4854 26.8077 20.5C28.2967 22.4854 30.6336 23.6538 33.1154 23.6538C33.6449 23.6536 34.1732 23.6008 34.6923 23.4962V34.6923ZM33.1154 20.5C30.5027 20.5 28.3846 18.382 28.3846 15.7692V14.1923H37.8462V15.7692C37.8462 18.382 35.7281 20.5 33.1154 20.5Z" fill="#0D141C"/>
</svg>
