<svg width="41" height="43" viewBox="0 0 41 43" fill="none" xmlns="http://www.w3.org/2000/svg">
<path fill-rule="evenodd" clip-rule="evenodd" d="M37.8462 4.73077H22.0769V1.57692C22.0769 0.706012 21.3709 0 20.5 0C19.6291 0 18.9231 0.706012 18.9231 1.57692V4.73077H3.15385C1.41202 4.73077 0 6.14279 0 7.88462V31.5385C0 33.2803 1.41202 34.6923 3.15385 34.6923H10.9123L6.65264 40.0144C6.10832 40.6948 6.21864 41.6877 6.89904 42.232C7.57944 42.7763 8.57227 42.666 9.11659 41.9856L14.9492 34.6923H26.0508L31.8834 41.9856C32.4277 42.666 33.4206 42.7763 34.101 42.232C34.7814 41.6877 34.8917 40.6948 34.3474 40.0144L30.0877 34.6923H37.8462C39.588 34.6923 41 33.2803 41 31.5385V7.88462C41 6.14279 39.588 4.73077 37.8462 4.73077ZM15.7692 25.2308C15.7692 26.1017 15.0632 26.8077 14.1923 26.8077C13.3214 26.8077 12.6154 26.1017 12.6154 25.2308V20.5C12.6154 19.6291 13.3214 18.9231 14.1923 18.9231C15.0632 18.9231 15.7692 19.6291 15.7692 20.5V25.2308ZM22.0769 25.2308C22.0769 26.1017 21.3709 26.8077 20.5 26.8077C19.6291 26.8077 18.9231 26.1017 18.9231 25.2308V17.3462C18.9231 16.4752 19.6291 15.7692 20.5 15.7692C21.3709 15.7692 22.0769 16.4752 22.0769 17.3462V25.2308ZM28.3846 25.2308C28.3846 26.1017 27.6786 26.8077 26.8077 26.8077C25.9368 26.8077 25.2308 26.1017 25.2308 25.2308V14.1923C25.2308 13.3214 25.9368 12.6154 26.8077 12.6154C27.6786 12.6154 28.3846 13.3214 28.3846 14.1923V25.2308Z" fill="#0F1417"/>
</svg>
