<svg width="38" height="40" viewBox="0 0 38 40" fill="none" xmlns="http://www.w3.org/2000/svg">
<path fill-rule="evenodd" clip-rule="evenodd" d="M36.9768 15.7843L21.1434 0.845599C21.1357 0.838846 21.1284 0.831572 21.1217 0.823828C19.9137 -0.274739 18.0685 -0.274739 16.8605 0.823828L16.8387 0.845599L1.02323 15.7843C0.370985 16.3841 -0.000134811 17.2297 0 18.1158V36.4132C0 38.1621 1.41776 39.5799 3.16667 39.5799H12.6667C14.4156 39.5799 15.8333 38.1621 15.8333 36.4132V26.9132H22.1667V36.4132C22.1667 38.1621 23.5844 39.5799 25.3333 39.5799H34.8333C36.5822 39.5799 38 38.1621 38 36.4132V18.1158C38.0001 17.2297 37.629 16.3841 36.9768 15.7843ZM34.8333 36.4132H25.3333V26.9132C25.3333 25.1643 23.9156 23.7465 22.1667 23.7465H15.8333C14.0844 23.7465 12.6667 25.1643 12.6667 26.9132V36.4132H3.16667V18.1158L3.18844 18.096L19 3.1632L34.8135 18.0921L34.8353 18.1118L34.8333 36.4132Z" fill="#639154"/>
</svg>
