<svg width="29" height="44" viewBox="0 0 29 44" fill="none" xmlns="http://www.w3.org/2000/svg">
<path fill-rule="evenodd" clip-rule="evenodd" d="M18.8571 20.4286H15.7143V7.85714H17.2857C20.7572 7.85714 23.5714 10.6714 23.5714 14.1429C23.5714 15.0107 24.275 15.7143 25.1429 15.7143C26.0107 15.7143 26.7143 15.0107 26.7143 14.1429C26.7089 8.93784 22.4907 4.7197 17.2857 4.71429H15.7143V1.57143C15.7143 0.703552 15.0107 0 14.1429 0C13.275 0 12.5714 0.703552 12.5714 1.57143V4.71429H11C5.79274 4.71429 1.57143 8.9356 1.57143 14.1429C1.57143 19.3501 5.79274 23.5714 11 23.5714H12.5714V36.1429H9.42857C5.95707 36.1429 3.14286 33.3286 3.14286 29.8571C3.14286 28.9893 2.4393 28.2857 1.57143 28.2857C0.703552 28.2857 0 28.9893 0 29.8571C0.0054133 35.0622 4.22356 39.2803 9.42857 39.2857H12.5714V42.4286C12.5714 43.2964 13.275 44 14.1429 44C15.0107 44 15.7143 43.2964 15.7143 42.4286V39.2857H18.8571C24.0644 39.2857 28.2857 35.0644 28.2857 29.8571C28.2857 24.6499 24.0644 20.4286 18.8571 20.4286ZM11 20.4286C7.5285 20.4286 4.71428 17.6144 4.71428 14.1429C4.71428 10.6714 7.5285 7.85714 11 7.85714H12.5714V20.4286H11ZM18.8571 36.1429H15.7143V23.5714H18.8571C22.3286 23.5714 25.1429 26.3856 25.1429 29.8571C25.1429 33.3286 22.3286 36.1429 18.8571 36.1429Z" fill="#121A0F"/>
</svg>
