<svg width="41" height="32" viewBox="0 0 41 32" fill="none" xmlns="http://www.w3.org/2000/svg">
<path fill-rule="evenodd" clip-rule="evenodd" d="M39.4231 0H1.57692C0.706012 0 0 0.706012 0 1.57692V28.3846C0 30.1264 1.41202 31.5385 3.15385 31.5385H37.8462C39.588 31.5385 41 30.1264 41 28.3846V1.57692C41 0.706012 40.294 0 39.4231 0ZM20.5 16.7844L5.63159 3.15385H35.3684L20.5 16.7844ZM14.7265 15.7692L3.15385 26.376V5.16245L14.7265 15.7692ZM17.0603 17.9079L19.4257 20.0861C20.0289 20.6397 20.9554 20.6397 21.5585 20.0861L23.9239 17.9079L35.3566 28.3846H5.63159L17.0603 17.9079ZM26.2735 15.7692L37.8462 5.16048V26.378L26.2735 15.7692Z" fill="#0D141C"/>
</svg>
