<svg width="50" height="30" viewBox="0 0 50 30" fill="none" xmlns="http://www.w3.org/2000/svg">
<path fill-rule="evenodd" clip-rule="evenodd" d="M49.8563 14.3925C49.7834 14.2444 48.0188 10.7212 44.0958 7.19062C38.8688 2.48625 32.2667 0 25 0C17.7333 0 11.1312 2.48625 5.90415 7.19062C1.98123 10.7212 0.208314 14.25 0.14373 14.3925C-0.0479101 14.7804 -0.0479101 15.2233 0.14373 15.6112C0.216647 15.7594 1.98123 19.2806 5.90415 22.8113C11.1312 27.5138 17.7333 30 25 30C32.2667 30 38.8688 27.5138 44.0958 22.8113C48.0188 19.2806 49.7834 15.7594 49.8563 15.6112C50.0479 15.2233 50.0479 14.7804 49.8563 14.3925ZM25 27C18.5875 27 12.9854 24.9019 8.3479 20.7656C6.44508 19.0626 4.82621 17.1205 3.54165 15C4.82586 12.8793 6.44477 10.9372 8.3479 9.23438C12.9854 5.09812 18.5875 3 25 3C31.4125 3 37.0146 5.09812 41.6521 9.23438C43.5586 10.9368 45.181 12.8788 46.4688 15C44.9667 17.5238 38.4229 27 25 27ZM25 6C19.4771 6 15 10.0294 15 15C15 19.9706 19.4771 24 25 24C30.5229 24 35 19.9706 35 15C34.9943 10.0316 30.5205 6.00517 25 6ZM25 21C21.3181 21 18.3333 18.3137 18.3333 15C18.3333 11.6863 21.3181 9 25 9C28.6819 9 31.6667 11.6863 31.6667 15C31.6667 18.3137 28.6819 21 25 21Z" fill="#639154"/>
</svg>
