<svg width="35" height="41" viewBox="0 0 35 41" fill="none" xmlns="http://www.w3.org/2000/svg">
<path fill-rule="evenodd" clip-rule="evenodd" d="M34.2311 11.4997L23.1926 0.46125C22.8966 0.165595 22.4953 -0.000329167 22.0769 0H3.15385C1.41202 0 -4.81239e-07 1.41202 -4.81239e-07 3.15385V37.8462C-4.81239e-07 39.588 1.41202 41 3.15385 41H31.5385C33.2803 41 34.6923 39.588 34.6923 37.8462V12.6154C34.6926 12.197 34.5267 11.7957 34.2311 11.4997ZM23.6538 5.38322L29.3091 11.0385H23.6538V5.38322ZM31.5385 37.8462H3.15385V3.15385H20.5V12.6154C20.5 13.4863 21.206 14.1923 22.0769 14.1923H31.5385V37.8462Z" fill="#0F1417"/>
</svg>
