<svg width="32" height="32" viewBox="0 0 32 32" fill="none" xmlns="http://www.w3.org/2000/svg">
<path fill-rule="evenodd" clip-rule="evenodd" d="M31.531 29.2672C32.1562 29.8923 32.1562 30.9059 31.531 31.531C30.9059 32.1562 29.8923 32.1562 29.2672 31.531L16 18.2619L2.73283 31.531C2.10768 32.1562 1.09412 32.1562 0.468971 31.531C-0.156177 30.9059 -0.156177 29.8923 0.468971 29.2672L13.7381 16L0.468971 2.73283C-0.156177 2.10768 -0.156177 1.09412 0.468971 0.468971C1.09412 -0.156177 2.10768 -0.156177 2.73283 0.468971L16 13.7381L29.2672 0.468971C29.8923 -0.156177 30.9059 -0.156177 31.531 0.468971C32.1562 1.09412 32.1562 2.10768 31.531 2.73283L18.2619 16L31.531 29.2672Z" fill="#0F1417"/>
</svg>
