<svg width="44" height="41" viewBox="0 0 44 41" fill="none" xmlns="http://www.w3.org/2000/svg">
<path fill-rule="evenodd" clip-rule="evenodd" d="M11 7.85714V1.57143C11 0.703552 11.7036 0 12.5714 0C13.4393 0 14.1429 0.703552 14.1429 1.57143V7.85714C14.1429 8.72502 13.4393 9.42857 12.5714 9.42857C11.7036 9.42857 11 8.72502 11 7.85714ZM18.8571 9.42857C19.725 9.42857 20.4286 8.72502 20.4286 7.85714V1.57143C20.4286 0.703552 19.725 0 18.8571 0C17.9893 0 17.2857 0.703552 17.2857 1.57143V7.85714C17.2857 8.72502 17.9893 9.42857 18.8571 9.42857ZM25.1429 9.42857C26.0107 9.42857 26.7143 8.72502 26.7143 7.85714V1.57143C26.7143 0.703552 26.0107 0 25.1429 0C24.275 0 23.5714 0.703552 23.5714 1.57143V7.85714C23.5714 8.72502 24.275 9.42857 25.1429 9.42857ZM44 20.4286V22C43.9987 26.1485 40.7724 29.5812 36.632 29.8395C35.5601 32.8715 33.7351 35.5812 31.3284 37.7143H36.1429C37.0107 37.7143 37.7143 38.4178 37.7143 39.2857C37.7143 40.1536 37.0107 40.8571 36.1429 40.8571H1.57143C0.703552 40.8571 0 40.1536 0 39.2857C0 38.4178 0.703552 37.7143 1.57143 37.7143H6.39178C2.33627 34.1313 0.00949916 28.983 0 23.5714V14.1429C0 13.275 0.703552 12.5714 1.57143 12.5714H36.1429C40.4822 12.5714 44 16.0892 44 20.4286ZM34.5714 15.7143H3.14286V23.5714C3.15522 29.591 6.59393 35.0783 12.0057 37.7143H25.7086C31.1204 35.0783 34.5591 29.591 34.5714 23.5714V15.7143ZM40.8571 20.4286C40.8565 18.4313 39.5974 16.6511 37.7143 15.9854V23.5714C37.7131 24.5582 37.6343 25.5434 37.4786 26.5179C39.481 25.9263 40.8557 24.088 40.8571 22V20.4286Z" fill="#121A0F"/>
</svg>
