<svg width="40" height="40" viewBox="0 0 40 40" fill="none" xmlns="http://www.w3.org/2000/svg">
<path fill-rule="evenodd" clip-rule="evenodd" d="M39.0605 9.87513L30.1249 0.937465C29.5248 0.337213 28.7107 -1.70892e-05 27.862 -1.70892e-05C27.0132 -1.70892e-05 26.1992 0.337213 25.599 0.937465L0.937964 25.6005C0.33515 26.1986 -0.00271328 27.0133 0 27.8625V36.8001C0 38.5674 1.43263 40 3.19988 40H12.1375C12.9867 40.0027 13.8014 39.6648 14.3995 39.062L39.0605 14.401C39.6608 13.8008 39.998 12.9868 39.998 12.138C39.998 11.2893 39.6608 10.4752 39.0605 9.87513ZM12.1375 36.8001H3.19988V27.8625L20.7992 10.2631L29.7369 19.2008L12.1375 36.8001ZM31.9988 16.9369L23.0611 8.0012L27.861 3.20138L36.7986 12.137L31.9988 16.9369Z" fill="#639154"/>
</svg>
