<svg width="41" height="35" viewBox="0 0 41 35" fill="none" xmlns="http://www.w3.org/2000/svg">
<path fill-rule="evenodd" clip-rule="evenodd" d="M9.46154 12.6154C9.46154 11.7445 10.1676 11.0385 11.0385 11.0385H29.9615C30.8324 11.0385 31.5385 11.7445 31.5385 12.6154C31.5385 13.4863 30.8324 14.1923 29.9615 14.1923H11.0385C10.1676 14.1923 9.46154 13.4863 9.46154 12.6154ZM11.0385 20.5H29.9615C30.8324 20.5 31.5385 19.794 31.5385 18.9231C31.5385 18.0522 30.8324 17.3462 29.9615 17.3462H11.0385C10.1676 17.3462 9.46154 18.0522 9.46154 18.9231C9.46154 19.794 10.1676 20.5 11.0385 20.5ZM41 3.15385V33.1154C40.9997 33.6618 40.7165 34.1692 40.2515 34.4563C39.7866 34.7434 39.2061 34.7693 38.7174 34.5248L33.1154 31.7237L27.5134 34.5248C27.0692 34.747 26.5462 34.747 26.102 34.5248L20.5 31.7237L14.898 34.5248C14.4538 34.747 13.9308 34.747 13.4866 34.5248L7.88462 31.7237L2.2826 34.5248C1.7939 34.7693 1.21343 34.7434 0.748459 34.4563C0.283484 34.1692 0.000291631 33.6618 0 33.1154V3.15385C0 1.41202 1.41202 -4.81239e-07 3.15385 -4.81239e-07H37.8462C39.588 -4.81239e-07 41 1.41202 41 3.15385ZM37.8462 3.15385H3.15385V30.5647L7.17894 28.5502C7.62314 28.3279 8.14609 28.3279 8.59029 28.5502L14.1923 31.3532L19.7943 28.5502C20.2385 28.3279 20.7615 28.3279 21.2057 28.5502L26.8077 31.3532L32.4097 28.5502C32.8539 28.3279 33.3769 28.3279 33.8211 28.5502L37.8462 30.5647V3.15385Z" fill="#639154"/>
</svg>
