<svg width="41" height="35" viewBox="0 0 41 35" fill="none" xmlns="http://www.w3.org/2000/svg">
<path fill-rule="evenodd" clip-rule="evenodd" d="M37.8462 -4.81239e-07H3.15385C1.41202 -4.81239e-07 0 1.41202 0 3.15385V33.1154C0.000291631 33.6618 0.283484 34.1692 0.748459 34.4563C1.21343 34.7434 1.7939 34.7693 2.2826 34.5248L7.88462 31.7238L13.4866 34.5248C13.9308 34.747 14.4538 34.747 14.898 34.5248L20.5 31.7238L26.102 34.5248C26.5462 34.747 27.0692 34.747 27.5134 34.5248L33.1154 31.7238L38.7174 34.5248C39.2061 34.7693 39.7866 34.7434 40.2515 34.4563C40.7165 34.1692 40.9997 33.6618 41 33.1154V3.15385C41 1.41202 39.588 -4.81239e-07 37.8462 -4.81239e-07ZM29.9615 20.5H11.0385C10.1676 20.5 9.46154 19.794 9.46154 18.9231C9.46154 18.0522 10.1676 17.3462 11.0385 17.3462H29.9615C30.8324 17.3462 31.5385 18.0522 31.5385 18.9231C31.5385 19.794 30.8324 20.5 29.9615 20.5ZM29.9615 14.1923H11.0385C10.1676 14.1923 9.46154 13.4863 9.46154 12.6154C9.46154 11.7445 10.1676 11.0385 11.0385 11.0385H29.9615C30.8324 11.0385 31.5385 11.7445 31.5385 12.6154C31.5385 13.4863 30.8324 14.1923 29.9615 14.1923Z" fill="#0D141C"/>
</svg>
