<svg width="38" height="41" viewBox="0 0 38 41" fill="none" xmlns="http://www.w3.org/2000/svg">
<path fill-rule="evenodd" clip-rule="evenodd" d="M34.6923 3.15385H29.9615V1.57692C29.9615 0.706012 29.2555 0 28.3846 0C27.5137 0 26.8077 0.706012 26.8077 1.57692V3.15385H11.0385V1.57692C11.0385 0.706012 10.3324 0 9.46154 0C8.59063 0 7.88461 0.706012 7.88461 1.57692V3.15385H3.15385C1.41202 3.15385 0 4.56587 0 6.30769V37.8462C0 39.588 1.41202 41 3.15385 41H34.6923C36.4341 41 37.8462 39.588 37.8462 37.8462V6.30769C37.8462 4.56587 36.4341 3.15385 34.6923 3.15385ZM7.88461 6.30769V7.88462C7.88461 8.75553 8.59063 9.46154 9.46154 9.46154C10.3324 9.46154 11.0385 8.75553 11.0385 7.88462V6.30769H26.8077V7.88462C26.8077 8.75553 27.5137 9.46154 28.3846 9.46154C29.2555 9.46154 29.9615 8.75553 29.9615 7.88462V6.30769H34.6923V12.6154H3.15385V6.30769H7.88461ZM34.6923 37.8462H3.15385V15.7692H34.6923V37.8462ZM15.7692 20.5V33.1154C15.7692 33.9863 15.0632 34.6923 14.1923 34.6923C13.3214 34.6923 12.6154 33.9863 12.6154 33.1154V23.0507L11.7441 23.4883C10.9647 23.878 10.0168 23.5621 9.62712 22.7826C9.23738 22.0031 9.55332 21.0553 10.3328 20.6656L13.4866 19.0887C13.9756 18.844 14.5565 18.8701 15.0216 19.1576C15.4867 19.4452 15.7696 19.9532 15.7692 20.5ZM27.4306 26.5022L23.6538 31.5385H26.8077C27.6786 31.5385 28.3846 32.2445 28.3846 33.1154C28.3846 33.9863 27.6786 34.6923 26.8077 34.6923H20.5C19.9027 34.6923 19.3567 34.3548 19.0896 33.8206C18.8224 33.2864 18.8801 32.6471 19.2385 32.1692L24.9114 24.6059C25.263 24.1378 25.3264 23.5135 25.076 22.9844C24.8256 22.4552 24.3027 22.1083 23.7178 22.0833C23.133 22.0584 22.5824 22.3595 22.2878 22.8654C22.0143 23.3692 21.4888 23.6848 20.9156 23.6897C20.3423 23.6947 19.8115 23.3881 19.5294 22.889C19.2472 22.39 19.2581 21.7772 19.5578 21.2885C20.6288 19.4351 22.8108 18.5318 24.8784 19.0859C26.946 19.6399 28.3839 21.5133 28.3846 23.6538C28.388 24.6823 28.0527 25.6832 27.4306 26.5022Z" fill="#668A5C"/>
</svg>
