<svg width="50" height="50" viewBox="0 0 50 50" fill="none" xmlns="http://www.w3.org/2000/svg">
<path d="M15 36.9667L25 26.9667L35 36.9667L36.9667 35L26.9667 25L36.9667 15L35 13.0333L25 23.0333L15 13.0333L13.0333 15L23.0333 25L13.0333 35L15 36.9667ZM25.0083 50C21.5528 50 18.3028 49.3444 15.2583 48.0333C12.2157 46.7204 9.56852 44.9389 7.31667 42.6889C5.06481 40.4389 3.28241 37.7944 1.96944 34.7556C0.656482 31.7167 0 28.4676 0 25.0083C0 21.5491 0.656482 18.2991 1.96944 15.2583C3.28056 12.2157 5.05926 9.56852 7.30556 7.31667C9.55185 5.06481 12.1972 3.28241 15.2417 1.96944C18.2861 0.656482 21.5361 0 24.9917 0C28.4472 0 31.6972 0.656482 34.7417 1.96944C37.7843 3.28056 40.4315 5.06018 42.6833 7.30833C44.9352 9.55648 46.7176 12.2018 48.0306 15.2444C49.3435 18.287 50 21.5361 50 24.9917C50 28.4472 49.3444 31.6972 48.0333 34.7417C46.7222 37.7861 44.9407 40.4333 42.6889 42.6833C40.437 44.9333 37.7926 46.7157 34.7556 48.0306C31.7185 49.3454 28.4694 50.0018 25.0083 50ZM25 47.2222C31.2037 47.2222 36.4583 45.0694 40.7639 40.7639C45.0694 36.4583 47.2222 31.2037 47.2222 25C47.2222 18.7963 45.0694 13.5417 40.7639 9.23611C36.4583 4.93055 31.2037 2.77778 25 2.77778C18.7963 2.77778 13.5417 4.93055 9.23611 9.23611C4.93055 13.5417 2.77778 18.7963 2.77778 25C2.77778 31.2037 4.93055 36.4583 9.23611 40.7639C13.5417 45.0694 18.7963 47.2222 25 47.2222Z" fill="#639154"/>
</svg>
