<svg width="38" height="38" viewBox="0 0 38 38" fill="none" xmlns="http://www.w3.org/2000/svg">
<path fill-rule="evenodd" clip-rule="evenodd" d="M38 19C38 19.8744 37.2911 20.5833 36.4167 20.5833H20.5833V36.4167C20.5833 37.2911 19.8744 38 19 38C18.1255 38 17.4167 37.2911 17.4167 36.4167V20.5833H1.58333C0.708882 20.5833 0 19.8744 0 19C0 18.1255 0.708882 17.4167 1.58333 17.4167H17.4167V1.58333C17.4167 0.708882 18.1255 0 19 0C19.8744 0 20.5833 0.708882 20.5833 1.58333V17.4167H36.4167C37.2911 17.4167 38 18.1255 38 19Z" fill="#121A0F"/>
</svg>
