<svg width="23" height="15" viewBox="0 0 23 15" fill="none" xmlns="http://www.w3.org/2000/svg">
<path fill-rule="evenodd" clip-rule="evenodd" d="M22.4353 7.19625C22.4025 7.12219 21.6084 5.36062 19.8431 3.59531C17.4909 1.24312 14.52 0 11.25 0C7.97999 0 5.00905 1.24312 2.65687 3.59531C0.891553 5.36062 0.093741 7.125 0.0646785 7.19625C-0.0215595 7.39022 -0.0215595 7.61165 0.0646785 7.80562C0.097491 7.87969 0.891553 9.64031 2.65687 11.4056C5.00905 13.7569 7.97999 15 11.25 15C14.52 15 17.4909 13.7569 19.8431 11.4056C21.6084 9.64031 22.4025 7.87969 22.4353 7.80562C22.5215 7.61165 22.5215 7.39022 22.4353 7.19625ZM11.25 13.5C8.36437 13.5 5.84343 12.4509 3.75655 10.3828C2.90028 9.53128 2.17179 8.56027 1.59374 7.5C2.17164 6.43963 2.90014 5.4686 3.75655 4.61719C5.84343 2.54906 8.36437 1.5 11.25 1.5C14.1356 1.5 16.6566 2.54906 18.7434 4.61719C19.6014 5.4684 20.3315 6.43942 20.9109 7.5C20.235 8.76188 17.2903 13.5 11.25 13.5ZM11.25 3C8.76471 3 6.74999 5.01472 6.74999 7.5C6.74999 9.98528 8.76471 12 11.25 12C13.7353 12 15.75 9.98528 15.75 7.5C15.7474 5.01579 13.7342 3.00258 11.25 3ZM11.25 10.5C9.59314 10.5 8.24999 9.15685 8.24999 7.5C8.24999 5.84315 9.59314 4.5 11.25 4.5C12.9068 4.5 14.25 5.84315 14.25 7.5C14.25 9.15685 12.9068 10.5 11.25 10.5Z" fill="#639154"/>
</svg>
